<svg id="Capa_1" enable-background="new 0 0 512 512" height="512" viewBox="0 0 512 512" width="512" xmlns="http://www.w3.org/2000/svg"><g><g><path d="m502 106v60c0 16.57-13.43 30-30 30h-30v30l-60-30h-96l-30 30-30-30h-90l-60 30v-30h-36c-16.57 0-30-13.43-30-30v-60c0-16.57 13.43-30 30-30h432c16.57 0 30 13.43 30 30z" fill="#ffd88e"/><path d="m502 427v9h-120v-9c0-33.14 26.86-60 60-60 33.138 0 60 26.859 60 60z" fill="#ff7b79"/><circle cx="442" cy="317" fill="#fce8d0" r="30"/><path d="m316 427v9h-120v-9c0-33.14 26.86-60 60-60 33.138 0 60 26.859 60 60z" fill="#ff7b79"/><circle cx="256" cy="317" fill="#fce8d0" r="30"/><path d="m130 427v9h-120v-9c0-33.14 26.86-60 60-60 33.138 0 60 26.859 60 60z" fill="#ff7b79"/><circle cx="70" cy="317" fill="#fce8d0" r="30"/></g><g><circle cx="316" cy="136" r="10"/><circle cx="256" cy="136" r="10"/><circle cx="196" cy="136" r="10"/><path d="m296 317c0-22.056-17.944-40-40-40s-40 17.944-40 40 17.944 40 40 40 40-17.944 40-40zm-40 20c-11.028 0-20-8.972-20-20s8.972-20 20-20 20 8.972 20 20-8.972 20-20 20z"/><path d="m186 427v9c0 5.522 4.478 10 10 10h120c5.522 0 10-4.478 10-10v-9c0-38.598-31.402-70-70-70s-70 31.402-70 70zm70-50c27.235 0 49.454 21.891 49.99 49h-99.98c.536-27.109 22.755-49 49.99-49z"/><path d="m110 317c0-22.056-17.944-40-40-40s-40 17.944-40 40 17.944 40 40 40 40-17.944 40-40zm-40 20c-11.028 0-20-8.972-20-20s8.972-20 20-20 20 8.972 20 20-8.972 20-20 20z"/><path d="m10 446h120c5.522 0 10-4.478 10-10v-9c0-38.598-31.402-70-70-70s-70 31.402-70 70v9c0 5.522 4.478 10 10 10zm60-69c27.235 0 49.454 21.891 49.99 49h-99.98c.536-27.109 22.755-49 49.99-49z"/><path d="m482 317c0-22.056-17.944-40-40-40s-40 17.944-40 40 17.944 40 40 40 40-17.944 40-40zm-40 20c-11.028 0-20-8.972-20-20s8.972-20 20-20 20 8.972 20 20-8.972 20-20 20z"/><path d="m442 357c-38.598 0-70 31.402-70 70v9c0 5.522 4.478 10 10 10h120c5.522 0 10-4.478 10-10v-9c0-38.598-31.402-70-70-70zm-49.99 69c.536-27.109 22.755-49 49.99-49s49.454 21.891 49.99 49z"/><path d="m472 66h-171c-5.522 0-10 4.478-10 10s4.478 10 10 10h171c11.028 0 20 8.972 20 20v60c0 11.028-8.972 20-20 20h-30c-5.522 0-10 4.478-10 10v13.819l-45.528-22.764c-1.388-.694-2.919-1.055-4.472-1.055h-96c-2.652 0-5.195 1.054-7.071 2.929l-22.929 22.928-22.929-22.929c-1.876-1.874-4.419-2.928-7.071-2.928h-90c-1.553 0-3.084.361-4.472 1.056l-45.528 22.763v-13.819c0-5.522-4.478-10-10-10h-36c-11.028 0-20-8.972-20-20v-60c0-11.028 8.972-20 20-20h171c5.522 0 10-4.478 10-10s-4.478-10-10-10h-171c-22.056 0-40 17.944-40 40v60c0 22.056 17.944 40 40 40h26v20c0 3.466 1.795 6.685 4.743 8.507 2.948 1.821 6.629 1.986 9.729.438l57.888-28.945h83.497l27.071 27.071c3.906 3.904 10.236 3.904 14.143 0l27.072-27.071h89.497l57.889 28.944c3.092 1.547 6.776 1.387 9.729-.438 2.948-1.822 4.743-5.041 4.743-8.507v-20h20c22.056 0 40-17.944 40-40v-60c-.001-22.055-17.945-39.999-40.001-39.999z"/><circle cx="256" cy="76" r="10"/></g></g></svg>